<svg xmlns="http://www.w3.org/2000/svg" width="512" height="512" viewBox="0 0 64 64" role="img" aria-label="PP monogram icon">
  <defs>
    <linearGradient id="wave" x1="0" x2="0" y1="0" y2="1">
      <stop offset="0%" stop-color="#58a6ff" stop-opacity="0.95" />
      <stop offset="100%" stop-color="#58a6ff" stop-opacity="0.75" />
    </linearGradient>
  </defs>
  <rect width="64" height="64" rx="12" fill="#0d1117" />
  <path d="M-2 44c6-5.5 14.5-9 22-8.5 10 .7 13.5 7.5 23 7.5 8.4 0 15.5-5.5 21-10" fill="none" stroke="url(#wave)" stroke-width="6" stroke-linecap="round" />
  <g fill="#e6edf3" fill-rule="evenodd">
    <path d="M14 12h11c6 0 11 4.7 11 10.5S31 33 25 33H17v15h-3V12Zm3 4v13h8c4.4 0 8-2.9 8-6.5S29.4 16 25 16Z" />
    <path d="M34 12h11c6 0 11 4.7 11 10.5S51 33 45 33h-8v15h-3V12Zm3 4v13h8c4.4 0 8-2.9 8-6.5S49.4 16 45 16Z" />
  </g>
</svg>
